<?xml version="1.0" standalone="no"?>
<!DOCTYPE svg PUBLIC "-//W3C//DTD SVG 20010904//EN"
 "http://www.w3.org/TR/2001/REC-SVG-20010904/DTD/svg10.dtd">
<svg version="1.0" xmlns="http://www.w3.org/2000/svg"
 width="606.000000pt" height="606.000000pt" viewBox="0 0 606.000000 606.000000"
 preserveAspectRatio="xMidYMid meet">

<g transform="translate(0.000000,606.000000) scale(0.100000,-0.100000)"
fill="#000000" stroke="none">
<path d="M2790 6050 c-596 -52 -1155 -269 -1615 -627 -567 -441 -966 -1079
-1109 -1774 -141 -684 -47 -1378 271 -2002 413 -808 1187 -1398 2074 -1581
684 -141 1378 -47 2002 271 589 301 1064 791 1351 1393 332 697 385 1492 149
2225 -163 508 -473 986 -857 1326 -477 421 -1034 675 -1651 754 -148 19 -474
27 -615 15z m1033 -2179 l217 -329 0 -164 0 -165 58 8 c31 4 125 10 207 13 83
4 166 9 186 12 25 4 41 0 57 -13 19 -17 22 -34 33 -255 10 -192 10 -240 -1
-253 -15 -18 -54 -20 -68 -2 -6 6 -14 82 -18 167 -4 85 -10 163 -13 172 -5 14
-104 -91 -420 -446 -228 -255 -420 -475 -428 -490 -7 -14 -17 -26 -21 -26 -5
0 -201 92 -437 205 l-428 206 -26 -24 c-22 -20 -638 -557 -694 -605 -16 -14
-20 -13 -46 19 l-29 34 49 43 49 44 0 1089 0 1089 778 0 777 0 218 -329z"/>
<path d="M2327 3983 c-4 -3 -7 -16 -7 -29 0 -17 -9 -25 -34 -34 -52 -17 -81
-54 -81 -105 0 -64 35 -97 137 -125 83 -24 100 -39 77 -66 -11 -14 -27 -16
-85 -11 -67 5 -74 4 -95 -19 -22 -24 -22 -24 -3 -39 10 -8 33 -17 51 -21 27
-5 32 -11 35 -38 3 -27 7 -31 33 -31 26 0 30 4 33 31 3 26 8 33 33 38 93 18
120 135 45 198 -12 9 -25 17 -30 18 -5 0 -40 9 -78 21 -61 18 -69 23 -66 42 3
20 9 22 80 23 60 0 82 4 98 19 36 32 23 47 -57 70 -17 5 -23 14 -23 36 0 25
-4 29 -28 29 -16 0 -32 -3 -35 -7z"/>
<path d="M2680 3740 c0 -6 128 -10 365 -10 237 0 365 4 365 10 0 6 -128 10
-365 10 -237 0 -365 -4 -365 -10z"/>
<path d="M4215 3138 c-71 -4 -140 -7 -152 -5 l-23 4 0 -198 c0 -110 2 -199 4
-199 9 0 356 392 356 401 0 10 1 10 -185 -3z"/>
<path d="M3500 2250 c52 -27 106 -41 85 -21 -11 9 -121 51 -133 51 -4 -1 18
-14 48 -30z"/>
</g>
</svg>
